{"title":"Goke.Body.Snatcher.From.Hell.1968.DVDRip.H264.AC3.Glaeken.CG","uid":11005194,"size":1480471193,"categoryP":"video","categoryS":"movies","magnet":"?xt=urn:btih:70d7c3dfcba339a0efa76466628eb653910474e7&amp;dn=Goke.Body.Snatcher.From.Hell.1968.DVDRip.H264.AC3.Glaeken.CG&amp;tr=udp%3A%2F%2Ftracker.openbittorrent.com%3A80&amp;tr=udp%3A%2F%2Fopen.demonii.com%3A1337&amp;tr=udp%3A%2F%2Ftracker.coppersurfer.tk%3A6969&amp;tr=udp%3A%2F%2Fexodus.desync.com%3A6969","seeders":5,"leechers":0,"uploader":"rpessoa","files":7,"time":1410214626,"description":"The survivors of a plane crash in a remote area are attacked by blob-like alien creatures that turn their victims into blood-thirsty vampires.\n &lt;a href=&quot;\nhttp://www.imdb.com/title/tt0063206/&quot; rel=&quot;nofollow&quot; target=&quot;_NEW&quot;&gt;\nhttp://www.imdb.com/title/tt0063206/&lt;/a&gt;\n\nGeneral\nUnique ID                                : 230268749145586861439350980292239519513 (0xAD3C25DE525202118977B6F058B56F19)\nComplete name                            : Goke.Body.Snatcher.From.Hell.1968.DVDRip.H264.AC3.Glaeken.CG.mkv\nFormat                                   : Matroska\nFormat version                           : Version 2\nFile size                                : 1.37 GiB\nDuration                                 : 1h 20mn\nOverall bit rate                         : 2 445 Kbps\nWriting application                      : HandBrake 0.9.4\n\nVideo\nID                                       : 1\nFormat                                   : AVC\nFormat/Info                              : Advanced Video Codec\nFormat profile                           : &lt;a class=&quot;__cf_email__&quot; href=&quot;/cdn-cgi/l/email-protection&quot; data-cfemail=&quot;773a161e19373b445947&quot;&gt;[email&amp;#160;protected]&lt;/a&gt;&lt;script cf-hash='f9e31' type=&quot;text/javascript&quot;&gt;\n/* &lt;![CDATA[ */!function(){try{var t=&quot;currentScript&quot;in document?document.currentScript:function(){for(var t=document.getElementsByTagName(&quot;script&quot;),e=t.length;e--;)if(t[e].getAttribute(&quot;cf-hash&quot;))return t[e]}();if(t&amp;&amp;t.previousSibling){var e,r,n,i,c=t.previousSibling,a=c.getAttribute(&quot;data-cfemail&quot;);if(a){for(e=&quot;&quot;,r=parseInt(a.substr(0,2),16),n=2;a.length-n;n+=2)i=parseInt(a.substr(n,2),16)^r,e+=String.fromCharCode(i);e=document.createTextNode(e),c.parentNode.replaceChild(e,c)}}}catch(u){}}();/* ]]&gt; */&lt;/script&gt;\nFormat settings, CABAC                   : Yes\nFormat settings, ReFrames                : 2 frames\nCodec ID                                 : V_MPEG4/ISO/AVC\nDuration                                 : 1h 20mn\nBit rate                                 : 2 240 Kbps\nWidth                                    : 716 pixels\nHeight                                   : 430 pixels\nDisplay aspect ratio                     : 2.35:1\nOriginal display aspect ratio            : 2.35:1\nFrame rate mode                          : Variable\nFrame rate                               : 25.000 fps\nColor space                              : YUV\nChroma subsampling                       : 4:2:0\nBit depth                                : 8 bits\nScan type                                : Progressive\nBits/(Pixel*Frame)                       : 0.291\nStream size                              : 1.24 GiB (90%)\nWriting library                          : x264 core 79\nEncoding settings                        : cabac=1 / ref=2 / deblock=1:0:0 / analyse=0x1:0x111 / me=hex / subme=6 / psy=1 / psy_rd=1.0:0.0 / mixed_ref=0 / me_range=16 / chroma_me=1 / trellis=0 / 8x8dct=0 / cqm=0 / deadzone=21,11 / chroma_qp_offset=-2 / threads=3 / nr=0 / decimate=1 / mbaff=0 / constrained_intra=0 / bframes=2 / b_pyramid=0 / b_adapt=1 / b_bias=0 / direct=1 / wpredb=0 / wpredp=2 / keyint=250 / keyint_min=25 / scenecut=40 / rc_lookahead=40 / rc=2pass / mbtree=1 / bitrate=2240 / ratetol=1.0 / qcomp=0.60 / qpmin=10 / qpmax=51 / qpstep=4 / cplxblur=20.0 / qblur=0.5 / ip_ratio=1.40 / aq=1:1.00\nLanguage                                 : English\nDefault                                  : Yes\nForced                                   : No\nColor primaries                          : BT.601-6 525, BT.1358 525, BT.1700 NTSC, SMPTE 170M\nTransfer characteristics                 : BT.709-5, BT.1361\nMatrix coefficients                      : BT.601-6 525, BT.1358 525, BT.1700 NTSC, SMPTE 170M\n\nAudio\nID                                       : 2\nFormat                                   : AC-3\nFormat/Info                              : Audio Coding 3\nMode extension                           : CM (complete main)\nCodec ID                                 : A_AC3\nDuration                                 : 1h 20mn\nBit rate mode                            : Constant\nBit rate                                 : 192 Kbps\nChannel(s)                               : 2 channels\nChannel positions                        : Front: L R\nSampling rate                            : 48.0 KHz\nBit depth                                : 16 bits\nCompression mode                         : Lossy\nStream size                              : 110 MiB (8%)\nLanguage                                 : Japanese\nDefault                                  : Yes\nForced                                   : No\n\nText #1\nID                                       : 3\nFormat                                   : VobSub\nCodec ID                                 : S_VOBSUB\nCodec ID/Info                            : The same subtitle format used on DVDs\nLanguage                                 : English\nDefault                                  : No\nForced                                   : No\n\nText #2\nID                                       : 4\nFormat                                   : VobSub\nCodec ID                                 : S_VOBSUB\nCodec ID/Info                            : The same subtitle format used on DVDs\nLanguage                                 : German\nDefault                                  : No\nForced                                   : No\n\nText #3\nID                                       : 5\nFormat                                   : VobSub\nCodec ID                                 : S_VOBSUB\nCodec ID/Info                            : The same subtitle format used on DVDs\nLanguage                                 : German\nDefault                                  : No\nForced                                   : No\n\nMenu\n00:00:00.000                             : Chapter 1\n00:05:36.640                             : Chapter 2\n00:10:29.160                             : Chapter 3\n00:15:59.080                             : Chapter 4\n00:20:49.440                             : Chapter 5\n00:27:46.640                             : Chapter 6\n00:36:21.800                             : Chapter 7\n00:45:34.760                             : Chapter 8\n00:52:41.920                             : Chapter 9\n00:59:16.960                             : Chapter 10\n01:02:21.840                             : Chapter 11\n01:06:46.280                             : Chapter 12\n01:10:27.320                             : Chapter 13\n01:13:45.640                             : Chapter 14\n01:17:06.840                             : Chapter 15","torrent":{"xt":"urn:btih:70d7c3dfcba339a0efa76466628eb653910474e7","amp;dn":"Goke.Body.Snatcher.From.Hell.1968.DVDRip.H264.AC3.Glaeken.CG","amp;tr":["udp%3A%2F%2Ftracker.openbittorrent.com%3A80","udp%3A%2F%2Fopen.demonii.com%3A1337","udp%3A%2F%2Ftracker.coppersurfer.tk%3A6969","udp%3A%2F%2Fexodus.desync.com%3A6969"],"infoHash":"70d7c3dfcba339a0efa76466628eb653910474e7","infoHashBuffer":{"type":"Buffer","data":[112,215,195,223,203,163,57,160,239,167,100,102,98,142,182,83,145,4,116,231]},"announce":[],"urlList":[]}}